<svg width="59" height="55" viewBox="0 0 59 55" fill="none" xmlns="http://www.w3.org/2000/svg">
<path d="M58.5247 29.658C58.1347 17.0306 48.4887 14.9593 45.4293 14.8986C45.0653 14.89 44.8487 14.474 45.0653 14.1706L51.7733 4.58531C52.068 4.16931 51.9813 3.57131 51.574 3.25931C50.196 2.21931 48.428 1.40464 46.348 0.76331C45.9753 0.650643 45.6027 0.936643 45.6113 1.32664C45.7153 5.70331 43.2193 11.2326 42.448 12.8446C42.3613 13.018 42.11 13.0093 42.032 12.836C39.042 5.74664 31.4673 3.24198 25.418 4.04798C19.2387 4.87131 16.6127 6.34464 11.248 12.42C5.88334 18.4953 4.29734 35.014 4.13267 39.2346C3.96801 43.4466 0.466675 48.482 0.466675 48.482C13.8133 55.5366 30.0113 54.3926 35.324 53.8466C39.172 53.448 41.2607 51.9573 42.1273 51.1686C42.344 50.9693 42.2487 50.5966 41.954 50.536C35.558 49.1753 34.96 47.312 33.738 45.0326C32.4813 42.684 34.4487 33.272 42.7687 35.6206C49.6673 37.5706 47.232 45.5786 46.2007 48.2566C46.0793 48.5773 46.4087 48.8893 46.7207 48.742C49.6673 47.312 58.8973 41.852 58.5247 29.658ZM17.3407 10.7126C18.8747 9.23931 23.3207 5.79864 31.8227 7.41931C40.472 9.05731 40.3593 16.9093 38.7907 19.7C38.5913 20.0553 38.184 20.09 38.028 19.7086C37.066 17.308 34.0847 11.2673 28.3213 10.3486C22.9653 9.49931 19.1693 10.496 17.5573 11.068C17.3407 11.1373 17.176 10.8686 17.3407 10.7126ZM12.1233 16.9526L13.588 14.578C14.03 13.8586 14.732 13.3386 15.5467 13.1393C16.9593 12.784 18.4067 12.5413 19.8367 12.368C23.3293 11.952 26.718 12.186 29.9507 13.6766C31.4587 14.37 32.8627 15.254 33.946 16.528C34.934 17.6893 35.5927 19.0933 36 20.558C36.156 21.104 36.2773 21.6673 36.3727 22.2306C36.4247 22.508 36.364 22.8026 36.2253 23.0453L34.856 25.394C34.7087 25.654 34.3273 25.602 34.2407 25.316C33.66 23.4093 32.6893 21.5113 31.398 20.0293C30.306 18.7813 28.876 17.9926 27.4027 17.2906C26.3453 16.788 25.2447 16.3806 24.1093 16.112C21.05 15.384 17.878 15.7306 14.8967 16.6233C14.0993 16.866 13.3107 17.1346 12.5393 17.4466C12.34 17.5246 12.1147 17.386 12.0887 17.1693C12.0713 17.0826 12.0887 17.0133 12.1233 16.9526ZM10.2253 22.5166L11.2393 18.9806C11.3433 18.608 11.6727 18.3306 12.0627 18.296L12.5133 18.2526C12.5133 18.2526 20.1227 16.008 26.4147 19.102C31.346 21.5286 32.334 25.9313 32.5247 27.7253C32.5767 28.202 32.4033 28.6786 32.0653 29.008L30.7133 30.3166C30.384 30.6373 29.8293 30.5073 29.6733 30.074C29.1533 28.5833 28.4773 27.1186 27.6367 25.8013C27.134 25.0126 26.536 24.2153 25.7647 23.6693C24.3607 22.6726 22.6013 22.0053 20.9373 21.598C19.6893 21.286 18.398 21.182 17.1153 21.2686C15.9973 21.338 14.8967 21.546 13.822 21.8493C13.198 22.0226 12.5827 22.2306 11.976 22.4646C11.6467 22.5946 11.3173 22.7246 10.9967 22.872C10.9447 22.8893 10.832 22.9326 10.702 22.9846C10.4247 23.08 10.1387 22.8113 10.2253 22.5166ZM32.5333 35.3693C32.9147 35.5426 33.036 36.0193 32.7933 36.3573L31.5107 38.1513C31.2073 38.576 30.6527 38.7233 30.176 38.524L27.966 37.5793C27.576 37.4146 27.4893 36.9033 27.8013 36.6173L29.3007 35.2566C29.8033 34.7626 30.566 34.468 31.2073 34.754L32.5333 35.3693ZM9.10734 27.0233L9.49734 24.978C9.60134 24.4146 9.99134 23.9466 10.52 23.7386C11.8807 23.2013 14.8967 22.4993 19.984 23.73C25.4093 25.0386 27.212 29.4673 27.784 31.6686C27.9747 32.4053 27.7233 33.1853 27.134 33.6706L25.9727 34.6326C25.6087 34.9273 25.0627 34.7626 24.9327 34.312C24.4733 32.7086 23.0953 29.5886 19.204 27.9246C15.2607 26.2346 11.5513 27.1186 9.86134 27.6993C9.44534 27.8293 9.02067 27.4566 9.10734 27.0233ZM8.72601 29.5973C8.73468 29.1293 9.09001 28.7393 9.55801 28.6786C12.2187 28.3493 20.634 28.02 23.0607 36.4526C23.1993 36.9206 23.0173 37.432 22.61 37.7006L21.3013 38.576C20.868 38.8706 20.27 38.68 20.088 38.186C19.2647 35.9326 16.604 30.7673 9.71401 32.2666C9.17667 32.3793 8.67401 31.972 8.68268 31.426L8.72601 29.5973ZM7.93734 35.9153L8.22334 34.26C8.34467 33.5406 9.00334 33.038 9.73134 33.1246C11.5687 33.3326 14.9487 34.1213 17.1413 37.016C17.644 37.6833 17.9387 38.472 18.008 39.304L18.034 39.5986C18.086 40.214 17.8 40.812 17.28 41.1586L16.2313 41.8693C15.85 42.1293 15.3213 41.9733 15.1393 41.5486L14.4287 39.434C14.1253 38.5326 13.4753 37.7786 12.626 37.3453L11.664 36.86C11.0833 36.5653 10.4333 36.4266 9.78334 36.47L8.50067 36.548C8.15401 36.5653 7.88534 36.2533 7.93734 35.9153ZM6.59401 40.7426L7.40867 38.082C7.56467 37.5706 8.10201 37.2846 8.61334 37.4406C10.1993 37.926 13.25 39.3386 13.3193 43.0913C13.3193 43.3253 13.2067 43.5333 13.0073 43.646C12.2707 44.0706 10.6847 44.764 10.598 44.686C10.494 44.5906 10.6673 40.994 7.15734 41.4186C7.05334 41.4273 6.94067 41.41 6.84534 41.358C6.62867 41.2453 6.51601 40.9853 6.59401 40.7426ZM12.1233 49.4526C12.028 50.0073 11.482 50.3626 10.936 50.224L3.52601 48.326C3.18801 48.2393 3.03201 47.8493 3.21401 47.5546L5.93534 43.074C6.09134 42.814 6.41201 42.684 6.70667 42.7793C7.42601 43.0046 8.64801 43.5593 8.82134 44.79C8.87334 45.1626 8.74334 45.544 8.47467 45.8126C8.35334 45.934 8.21467 46.0293 8.05867 46.09L5.73601 46.9913C5.55401 47.0606 5.51067 47.2946 5.64934 47.4246C5.70134 47.468 5.76201 47.494 5.83134 47.494L7.52134 47.4766C7.84201 47.4766 8.16267 47.442 8.48334 47.39C9.59268 47.208 12.5567 46.9566 12.1233 49.4526ZM18.372 50.5533C18.1727 50.796 17.9387 51.0646 17.6093 51.0993C17.4793 51.1166 17.358 51.0993 17.228 51.082C17.098 51.0646 16.9767 51.0646 16.8467 51.056C16.5433 51.03 16.24 51.004 15.9367 50.978C15.6073 50.952 15.2867 50.9173 14.9573 50.874C14.706 50.848 14.4547 50.8133 14.212 50.77C13.8653 50.7093 13.64 50.3626 13.744 50.0246C13.9607 49.2793 14.108 47.9706 13.016 46.766C12.8427 46.5753 12.8947 46.2633 13.12 46.1333L15.2693 44.9113C15.5813 44.7293 15.9627 44.7293 16.2747 44.9026C16.9853 45.2926 18.2073 46.1246 18.788 47.3986C19.256 48.4473 19.0827 49.6693 18.372 50.5533ZM24.1787 50.822C23.8147 51.1773 23.3293 51.3853 22.818 51.4113L20.7207 51.5066C20.3567 51.524 20.1053 51.1426 20.2613 50.8133C20.9633 49.34 22.0467 46.0033 18.58 44.1486C18.32 44.01 18.294 43.6373 18.5453 43.4726L19.8713 42.5886C20.2787 42.3113 20.8073 42.2853 21.2407 42.528C23.2167 43.594 28.226 46.8786 24.1787 50.822ZM34.4227 50.3713C34.726 50.6053 34.5613 51.082 34.18 51.0906L27.4633 51.16C27.0473 51.1686 26.7613 50.7266 26.9433 50.354C29.6127 44.7986 25.4093 41.9213 23.6933 41.0286C23.39 40.8726 23.3467 40.448 23.6153 40.24L24.4473 39.5726C25.0713 39.0786 25.8947 38.9053 26.666 39.1046C27.888 39.4253 28.928 40.1273 29.5867 40.6646C30.0547 41.046 30.332 41.6093 30.3493 42.216C30.4273 46.6446 32.9407 49.2273 34.4227 50.3713ZM41.0613 32.6046C39.9867 32.6046 37.9327 32.7086 36.5113 33.4886C36.104 33.714 35.6273 33.7573 35.1767 33.636L32.854 32.9946C32.5073 32.8993 32.3687 32.4833 32.594 32.1973L33.8853 30.568C34.336 29.9526 35.012 29.5626 35.7573 29.684C37.2653 29.9353 39.77 30.5593 41.2693 32.0586C41.4947 32.258 41.356 32.6046 41.0613 32.6046ZM51.028 42.3113C50.8807 42.502 50.5947 42.502 50.4387 42.3113C50.4387 42.3113 50.4387 42.3113 50.43 42.3026C50.274 42.1033 49.7973 30.3166 37.742 27.682C37.274 27.578 37.0747 27.032 37.3693 26.6506L39.068 24.432C39.4667 23.912 40.1253 23.6606 40.7753 23.782C43.2107 24.2586 49.0693 26.0093 51.2187 32.154C53.7753 39.4773 52.4233 40.5433 51.028 42.3113ZM55.0493 34.65C54.98 35.0053 54.4773 35.014 54.3993 34.6586C53.55 30.88 50.56 21.6326 41.6073 21.5893C41.226 21.5893 40.9833 21.1733 41.174 20.844L42.6993 18.1226C43.0807 17.438 44.372 17.334 45.1347 17.516C48.6967 18.374 57.528 21.6413 55.0493 34.65Z" fill="#31947F"/>
</svg>
