<?xml version="1.0" standalone="no"?>
<!DOCTYPE svg PUBLIC "-//W3C//DTD SVG 20010904//EN"
 "http://www.w3.org/TR/2001/REC-SVG-20010904/DTD/svg10.dtd">
<svg version="1.0" xmlns="http://www.w3.org/2000/svg"
 width="944.000000pt" height="944.000000pt" viewBox="0 0 944.000000 944.000000"
 preserveAspectRatio="xMidYMid meet">
<metadata>
Created by potrace 1.14, written by Peter Selinger 2001-2017
</metadata>
<g transform="translate(0.000000,944.000000) scale(0.100000,-0.100000)"
fill="#000000" stroke="none">
<path d="M7349 8993 c-37 -10 -50 -58 -55 -201 -2 -75 -6 -148 -9 -162 -3 -14
-8 -48 -10 -76 -3 -28 -8 -62 -10 -75 -6 -29 -13 -68 -20 -111 -3 -18 -8 -41
-11 -50 -3 -9 -6 -25 -8 -35 -5 -21 -36 -151 -42 -173 -2 -8 -11 -40 -19 -70
-9 -30 -18 -62 -20 -70 -2 -8 -13 -42 -25 -75 -11 -33 -22 -67 -24 -75 -3 -8
-9 -26 -14 -40 -5 -14 -10 -28 -11 -32 -7 -36 -141 -380 -152 -392 -5 -6 -9
-16 -9 -22 0 -7 -22 -59 -48 -116 -27 -57 -54 -118 -61 -135 -11 -26 -19 -33
-40 -33 -24 0 -32 10 -74 98 -25 53 -62 126 -82 161 -34 62 -152 241 -164 251
-4 3 -22 25 -41 50 -63 83 -284 295 -390 374 -262 195 -559 336 -885 421 -95
25 -99 26 -235 50 -114 19 -151 24 -245 31 -94 7 -386 11 -399 5 -5 -2 -29 -5
-55 -6 -68 -4 -293 -34 -371 -50 -14 -3 -51 -10 -82 -15 -32 -6 -68 -13 -81
-15 -13 -3 -59 -14 -103 -25 -43 -12 -86 -22 -95 -25 -9 -2 -49 -13 -90 -26
-41 -12 -79 -23 -85 -25 -6 -1 -27 -9 -45 -17 -19 -9 -59 -26 -89 -37 -109
-43 -404 -206 -430 -239 -3 -4 -18 -15 -35 -25 -36 -23 -212 -165 -274 -221
-77 -70 -353 -346 -438 -440 -45 -50 -103 -112 -128 -140 -113 -122 -268 -347
-345 -500 -14 -28 -29 -53 -33 -56 -5 -3 -8 -8 -7 -10 1 -2 -19 -48 -44 -102
-25 -54 -46 -100 -46 -102 0 -3 -11 -28 -25 -57 -14 -28 -25 -60 -25 -69 0
-10 -5 -21 -10 -24 -6 -4 -8 -11 -5 -16 4 -5 2 -9 -3 -9 -5 0 -12 -10 -15 -22
-3 -13 -21 -68 -42 -123 -29 -79 -116 -348 -129 -400 -1 -5 -8 -30 -15 -55 -7
-25 -15 -52 -17 -60 -2 -8 -13 -49 -24 -90 -11 -41 -23 -84 -25 -95 -3 -11 -7
-31 -11 -45 -3 -14 -7 -35 -9 -47 -2 -12 -6 -27 -10 -33 -4 -6 -8 -21 -10 -33
-2 -12 -6 -31 -8 -42 -7 -25 -37 -163 -42 -190 -2 -11 -6 -31 -9 -45 -2 -14
-9 -46 -15 -73 -6 -26 -14 -64 -17 -85 -3 -20 -8 -46 -11 -57 -3 -11 -8 -33
-9 -50 -2 -16 -11 -66 -20 -110 -8 -44 -17 -96 -19 -115 -2 -19 -4 -35 -5 -35
-2 0 -9 -37 -15 -80 -3 -22 -7 -47 -10 -55 -2 -8 -7 -40 -10 -70 -3 -30 -8
-62 -10 -70 -2 -8 -7 -40 -10 -70 -3 -30 -8 -62 -10 -70 -4 -15 -14 -95 -20
-155 -2 -16 -8 -66 -14 -110 -11 -85 -19 -154 -25 -220 -2 -22 -7 -69 -10
-105 -14 -134 -16 -157 -22 -235 -3 -44 -8 -96 -9 -115 -2 -19 -6 -89 -10
-155 -10 -194 -21 -284 -46 -380 -6 -22 -13 -49 -15 -60 -8 -43 -48 -166 -86
-265 -22 -58 -42 -115 -45 -128 -3 -12 -9 -22 -14 -22 -5 0 -9 -7 -9 -16 0
-16 -185 -394 -198 -404 -4 -3 -20 -31 -37 -62 -16 -32 -33 -58 -37 -58 -5 0
-8 -4 -8 -10 0 -5 -21 -42 -46 -81 -25 -39 -42 -75 -37 -80 21 -20 417 -209
439 -209 8 0 14 -4 14 -9 0 -5 10 -11 23 -14 12 -3 67 -24 122 -47 55 -23 123
-50 150 -60 28 -10 75 -28 105 -40 30 -12 62 -23 70 -25 8 -2 16 -4 18 -5 1
-2 5 -3 10 -4 4 -1 93 -30 197 -63 105 -34 215 -68 245 -77 84 -23 332 -88
355 -92 11 -2 29 -6 40 -9 11 -2 52 -11 90 -20 39 -9 79 -18 90 -21 11 -3 29
-7 40 -8 11 -2 20 -4 20 -5 0 -1 14 -4 30 -6 17 -2 41 -6 55 -10 14 -3 61 -12
105 -20 44 -7 96 -17 115 -20 37 -7 69 -12 123 -20 17 -2 48 -7 67 -10 19 -4
50 -8 69 -11 19 -2 46 -6 60 -9 50 -8 196 -26 246 -30 28 -2 64 -7 81 -10 17
-3 58 -8 90 -10 33 -3 84 -7 114 -10 85 -9 200 -17 253 -18 26 -1 47 -4 47 -7
0 -3 33 -5 73 -6 39 0 178 -4 307 -9 346 -11 815 -7 1060 10 25 2 95 6 155 9
61 4 130 9 155 11 25 3 79 7 120 10 41 2 95 7 120 10 25 2 72 7 105 11 33 3
69 8 80 10 10 2 37 6 60 10 192 28 412 95 585 177 104 50 258 149 322 206 46
41 48 48 39 103 0 3 -18 12 -38 19 -40 13 -52 16 -93 24 -84 14 -402 109 -480
142 -19 9 -55 24 -80 35 -25 10 -67 31 -95 46 -27 14 -60 31 -72 37 -13 5 -23
13 -23 18 0 4 -5 7 -11 7 -13 0 -123 84 -169 130 -20 19 -54 58 -75 85 -22 28
-43 52 -46 55 -3 3 -14 21 -24 40 -9 19 -23 42 -30 50 -22 25 -133 247 -145
287 -17 60 -24 121 -24 218 0 167 21 299 77 465 11 36 22 67 22 70 10 37 102
218 131 257 13 17 24 36 24 41 0 6 3 12 8 14 4 2 25 26 47 53 131 165 331 298
511 340 10 2 39 9 64 16 25 6 92 12 150 15 58 2 107 4 110 5 3 1 9 1 14 0 5
-1 30 -4 55 -7 103 -11 110 -12 186 -28 11 -2 40 -10 65 -17 25 -7 50 -14 55
-14 32 -3 267 -106 285 -125 3 -3 30 -23 60 -45 167 -118 296 -318 346 -534
15 -64 18 -81 32 -206 11 -92 4 -319 -12 -405 -2 -14 -7 -43 -10 -65 -14 -103
-76 -362 -112 -465 -3 -8 -6 -17 -7 -20 0 -3 -13 -39 -29 -80 -34 -92 -35
-120 -5 -140 31 -20 35 -20 102 14 33 16 63 30 67 31 3 0 10 4 15 8 4 5 22 15
38 23 38 18 83 45 191 114 48 30 94 60 103 65 21 13 135 97 141 104 3 4 30 25
60 47 177 132 402 355 563 559 48 61 92 115 97 122 6 7 10 15 10 18 0 4 6 13
13 20 27 31 37 44 37 51 0 3 10 20 23 37 25 36 26 37 86 144 70 122 104 190
150 298 23 55 47 109 52 120 5 11 25 70 45 130 41 126 62 201 78 285 1 8 5 24
9 35 4 11 9 34 11 50 3 17 7 39 9 50 4 17 13 77 22 145 37 272 37 659 1 937
-7 54 -35 214 -41 233 -2 8 -6 26 -9 40 -17 91 -80 295 -119 390 -6 14 -11 27
-12 30 -17 50 -94 202 -145 286 -22 36 -40 68 -40 70 0 3 -5 10 -10 17 -6 7
-37 48 -70 92 -107 146 -196 237 -382 391 -102 85 -408 259 -508 289 -14 4
-38 13 -55 20 -26 12 -122 44 -150 52 -5 1 -44 11 -85 23 -41 11 -91 23 -110
26 -19 3 -42 8 -50 11 -8 3 -28 6 -45 8 -16 1 -52 5 -80 8 -27 4 -81 9 -120
12 -71 5 -84 12 -102 56 -8 19 -8 32 0 47 13 22 133 198 149 216 5 6 40 56 78
111 38 55 72 105 77 110 4 6 33 46 63 90 30 44 58 82 62 83 4 2 8 10 8 18 0 8
5 14 10 14 6 0 10 5 10 10 0 6 5 16 11 23 6 7 57 78 113 159 57 81 110 158
119 170 19 26 117 167 234 336 43 63 83 119 88 125 25 28 76 114 82 135 9 35
-3 97 -23 127 -41 57 -345 236 -524 308 -25 10 -54 22 -65 27 -105 43 -283
100 -309 99 -12 -1 -28 -3 -37 -6z m-2919 -992 c0 6 4 8 9 5 5 -3 62 -8 127
-11 134 -6 191 -11 249 -19 22 -3 60 -9 85 -12 25 -3 54 -7 66 -9 11 -2 45 -8
75 -14 30 -5 68 -12 84 -15 110 -17 331 -91 449 -149 45 -23 83 -41 86 -42 6
-1 116 -71 133 -85 63 -49 156 -128 170 -144 10 -12 33 -37 50 -56 18 -19 45
-53 62 -75 16 -22 33 -42 37 -43 5 -2 6 -8 2 -13 -3 -5 0 -9 5 -9 6 0 11 -4
11 -9 0 -5 18 -39 40 -75 22 -36 40 -69 40 -74 0 -5 9 -27 20 -49 21 -45 68
-197 76 -253 3 -19 8 -38 9 -41 10 -15 19 -139 19 -264 0 -127 -4 -182 -19
-255 -3 -14 -7 -34 -9 -45 -2 -11 -9 -32 -15 -47 -6 -16 -9 -28 -6 -28 6 0
-29 -98 -58 -161 -48 -103 -114 -113 -152 -21 -11 26 -19 50 -17 55 1 4 -3 7
-10 7 -6 0 -9 3 -5 6 18 18 -245 487 -350 624 -124 162 -321 371 -412 440 -18
14 -38 30 -45 35 -6 6 -49 36 -96 67 -229 152 -451 229 -760 263 -25 3 -58 7
-75 9 -77 11 -267 20 -430 19 -157 -1 -340 -7 -355 -13 -3 -1 -8 -2 -12 -1
-13 1 -186 -22 -252 -35 -30 -5 -167 -33 -191 -39 -52 -11 -181 -49 -185 -54
-3 -3 -12 -7 -20 -8 -8 0 -29 -4 -47 -8 -25 -6 -33 -3 -42 13 -10 18 -6 26 27
59 21 21 53 49 71 63 18 14 44 35 59 48 182 153 550 323 842 391 114 26 129
29 245 45 106 15 132 17 236 21 61 2 113 6 116 8 2 3 18 1 34 -3 18 -5 29 -5
29 1z m-480 -844 c19 -3 58 -8 85 -11 28 -4 64 -9 80 -11 17 -3 41 -7 55 -9
14 -2 36 -7 50 -10 14 -3 36 -8 50 -11 63 -12 111 -25 190 -49 47 -15 90 -28
95 -30 103 -32 417 -175 431 -197 3 -5 10 -7 15 -4 5 4 9 3 9 -2 0 -4 12 -14
28 -21 46 -21 198 -134 277 -207 67 -62 215 -234 215 -250 0 -4 13 -25 29 -48
41 -60 102 -187 144 -297 31 -82 63 -185 57 -185 -1 0 4 -13 11 -30 6 -16 13
-41 14 -55 2 -14 4 -25 5 -25 1 0 3 -7 5 -15 2 -8 6 -28 10 -45 19 -89 18
-150 -5 -203 -12 -29 -26 -52 -29 -52 -4 0 -13 -16 -21 -35 -8 -19 -17 -35
-22 -35 -4 0 -8 -4 -8 -9 0 -4 -22 -46 -49 -92 -28 -46 -60 -103 -72 -125 -42
-81 -97 -83 -124 -6 -82 228 -157 397 -222 500 -18 28 -32 54 -30 56 1 3 -8
16 -20 29 -12 14 -19 28 -16 31 4 3 1 6 -5 6 -7 0 -12 4 -12 10 0 5 -6 18 -14
27 -8 10 -36 46 -62 81 -54 73 -157 180 -229 239 -62 51 -201 143 -215 143 -5
0 -10 3 -10 8 0 4 -10 12 -23 18 -12 6 -80 40 -152 76 -71 36 -159 78 -195 92
-36 15 -74 31 -85 36 -22 9 -57 23 -65 25 -3 0 -35 11 -71 23 -36 12 -74 24
-85 27 -10 2 -37 9 -59 15 -61 16 -74 19 -160 35 -86 16 -155 26 -195 28 -14
1 -28 6 -32 12 -5 7 -8 6 -8 -1 0 -7 -17 -9 -47 -6 -27 3 -100 5 -163 5 -99 0
-159 -3 -325 -18 -32 -3 -117 -15 -150 -21 -188 -37 -232 -46 -285 -59 -101
-25 -359 -108 -460 -147 -96 -37 -122 -38 -138 -3 -15 33 -17 28 101 219 200
324 237 365 387 424 45 18 194 54 313 76 12 3 22 5 22 6 0 1 16 3 35 5 19 3
46 7 60 10 76 16 298 46 460 60 41 4 77 8 79 10 5 6 512 -2 551 -8z m-700
-841 c145 -13 239 -25 315 -41 17 -3 55 -10 85 -16 45 -9 144 -34 218 -55 7
-2 13 -3 15 -3 2 1 172 -61 237 -87 25 -10 52 -24 61 -31 8 -7 20 -13 26 -13
12 0 161 -78 173 -90 3 -3 30 -21 60 -40 197 -124 413 -350 531 -555 68 -118
147 -295 141 -317 -1 -5 2 -8 8 -8 6 0 9 -3 8 -7 -3 -8 18 -91 33 -133 5 -14
11 -41 14 -60 3 -19 8 -42 10 -50 29 -109 20 -238 -19 -288 -31 -39 -255 -255
-276 -267 -36 -19 -89 -11 -115 16 -12 13 -30 47 -40 74 -69 192 -249 571
-277 583 -5 2 -8 10 -8 18 0 8 -4 14 -10 14 -5 0 -10 6 -10 13 0 32 -173 246
-260 322 -112 97 -465 276 -615 311 -27 7 -37 10 -55 17 -22 9 -161 45 -193
51 -15 3 -35 7 -45 10 -9 3 -35 8 -57 11 -22 3 -53 8 -70 10 -16 3 -68 7 -114
10 -46 3 -87 8 -91 10 -5 3 -11 1 -15 -4 -3 -6 -15 -7 -28 -2 -13 5 -30 5 -39
0 -11 -6 -19 -5 -23 1 -4 6 -10 8 -14 5 -5 -2 -44 -7 -87 -10 -44 -2 -97 -7
-119 -11 -22 -3 -53 -8 -70 -10 -130 -19 -431 -93 -500 -123 -11 -5 -33 -14
-50 -20 -16 -6 -43 -16 -60 -22 -16 -7 -32 -13 -35 -14 -8 -3 -42 -16 -114
-47 -80 -33 -117 -31 -135 8 -6 14 -9 29 -7 33 3 4 7 18 10 32 3 13 17 65 31
114 14 50 28 97 30 105 2 8 4 15 5 15 1 0 3 7 5 15 2 8 11 40 20 70 9 30 18
64 20 75 1 11 12 46 23 78 11 31 18 57 16 57 -8 0 23 54 43 75 27 30 62 44
120 50 28 3 63 9 77 15 14 5 26 8 26 5 0 -2 15 1 33 6 31 9 198 43 267 54 19
3 46 7 60 10 14 2 48 7 75 10 28 3 70 8 95 11 25 3 85 7 134 9 48 2 90 6 92 8
5 5 361 0 434 -7z m4039 -18 c58 -16 120 -33 136 -37 111 -30 482 -198 493
-223 2 -5 9 -8 15 -8 6 0 37 -18 68 -40 32 -22 62 -40 67 -40 6 0 12 -3 14 -8
3 -6 31 -29 112 -92 29 -22 216 -209 252 -251 42 -51 164 -233 164 -247 0 -5
3 -12 8 -14 11 -5 63 -108 55 -108 -5 0 -3 -4 3 -8 11 -7 28 -46 76 -177 28
-75 32 -89 42 -132 2 -10 11 -45 19 -78 8 -33 18 -76 21 -95 3 -19 9 -46 11
-60 3 -14 8 -47 10 -75 3 -27 8 -75 11 -105 14 -114 8 -444 -11 -615 -8 -77
-23 -178 -31 -215 -3 -14 -8 -41 -10 -60 -6 -48 -28 -78 -56 -76 -42 2 -57 32
-84 166 -21 103 -143 464 -199 587 -14 29 -25 58 -25 63 0 6 -5 10 -12 10 -6
0 -8 3 -5 7 4 3 2 12 -4 20 -6 7 -8 13 -4 13 4 0 3 6 -3 13 -5 6 -30 50 -54
97 -91 175 -232 393 -299 463 -8 8 -28 32 -45 53 -63 78 -227 233 -309 292
-172 124 -252 167 -500 262 -107 42 -324 78 -507 85 -77 2 -83 4 -109 33 -24
27 -27 35 -19 63 5 17 16 41 23 53 8 11 29 48 47 81 31 56 43 77 88 158 11 17
37 66 60 108 23 41 52 85 65 97 27 25 91 54 132 60 17 2 31 5 33 7 2 2 38 3
79 3 53 0 108 -9 182 -30z m-4794 -869 c50 -1 98 -6 107 -11 10 -5 19 -4 23 2
4 6 11 8 16 4 10 -6 64 -15 89 -16 17 0 142 -19 210 -32 14 -3 41 -8 60 -10
43 -7 76 -14 98 -20 9 -3 31 -8 49 -11 18 -3 43 -9 57 -15 15 -5 26 -7 26 -4
0 4 7 1 15 -6 8 -7 15 -10 15 -7 0 14 186 -56 302 -113 258 -127 462 -309 628
-559 100 -150 221 -424 256 -578 12 -56 6 -173 -10 -173 -5 0 -6 -3 -3 -7 9
-8 -39 -91 -68 -118 -11 -11 -43 -38 -70 -60 -26 -22 -60 -51 -74 -64 -71 -65
-126 -87 -171 -67 -36 16 -51 40 -86 141 -17 50 -40 108 -50 130 -10 22 -17
43 -16 48 1 4 -2 7 -7 7 -5 0 -14 12 -20 28 -10 26 -32 66 -80 145 -13 20 -27
37 -32 37 -5 0 -9 6 -9 13 0 6 -14 28 -30 47 -16 19 -49 58 -72 85 -23 28 -83
85 -132 128 -114 97 -103 89 -178 137 -35 22 -67 43 -73 47 -19 15 -191 96
-255 121 -67 25 -243 78 -289 87 -186 35 -204 36 -408 40 -100 1 -173 -1 -173
-7 0 -5 -8 -4 -19 1 -10 6 -20 9 -22 6 -2 -2 -24 -6 -49 -10 -76 -11 -164 -25
-187 -30 -13 -3 -33 -7 -45 -10 -13 -3 -33 -7 -45 -9 -12 -3 -61 -16 -109 -31
-47 -14 -98 -27 -113 -29 -33 -3 -68 19 -85 53 -13 28 -13 38 3 121 17 87 20
100 37 195 33 176 79 232 233 287 31 11 67 22 81 24 14 3 43 10 65 16 22 6 47
12 55 14 8 1 38 5 65 10 28 4 57 9 65 10 8 2 67 6 130 10 63 3 116 7 117 8 1
0 21 0 45 -1 23 -1 84 -3 133 -4z m4173 -148 c265 -68 536 -184 746 -321 59
-39 114 -76 121 -83 7 -7 28 -23 46 -37 84 -63 247 -224 277 -272 9 -16 19
-28 23 -28 3 0 26 -28 50 -62 24 -35 47 -64 51 -66 4 -2 8 -8 8 -13 0 -5 15
-33 34 -62 35 -55 146 -279 146 -295 0 -8 28 -84 51 -137 8 -19 73 -230 89
-290 5 -16 18 -66 30 -110 12 -44 24 -93 27 -109 3 -16 11 -59 20 -95 8 -36
16 -82 18 -101 3 -19 7 -57 11 -85 9 -72 9 -210 1 -280 -14 -117 -59 -227
-140 -340 -28 -38 -53 -72 -57 -75 -3 -3 -18 -22 -34 -42 -35 -47 -74 -62
-102 -39 -11 9 -21 23 -21 31 -1 22 -14 113 -18 130 -3 8 -7 33 -11 55 -3 22
-10 60 -16 85 -5 25 -11 52 -13 61 -9 42 -37 156 -42 169 -3 8 -8 24 -10 35
-1 11 -7 29 -12 40 -5 11 -15 38 -21 60 -12 43 -18 59 -44 118 -9 21 -16 42
-16 47 0 6 -29 70 -64 143 -35 72 -64 136 -64 141 0 5 -4 12 -9 15 -4 3 -14
17 -22 31 -8 14 -19 34 -25 44 -6 11 -14 25 -18 30 -4 6 -33 49 -64 96 -129
194 -299 380 -479 523 -33 27 -68 55 -78 63 -9 8 -20 14 -23 14 -3 0 -23 13
-43 28 -50 39 -151 100 -246 149 -96 50 -265 124 -265 116 0 -3 -6 -1 -12 5
-11 8 -182 67 -223 76 -5 2 -30 8 -55 15 -51 15 -50 15 -105 26 -55 11 -89 37
-102 79 -9 29 -8 42 9 76 11 22 31 50 44 62 13 13 24 28 24 35 0 6 4 13 8 15
4 2 58 68 119 148 109 143 170 199 226 207 11 2 23 6 25 8 12 12 139 -5 250
-34z m-4643 -735 c196 -11 393 -46 568 -102 142 -46 383 -161 438 -210 8 -8
19 -14 23 -14 4 0 13 -6 20 -12 7 -7 28 -24 46 -38 58 -43 171 -152 222 -215
26 -33 54 -67 62 -75 51 -56 183 -297 222 -405 9 -27 21 -55 26 -61 5 -7 8
-16 7 -20 -1 -5 1 -18 5 -29 4 -11 13 -33 19 -49 19 -51 13 -128 -12 -170 -28
-45 -275 -215 -321 -220 -16 -2 -47 5 -68 14 -42 19 -52 34 -104 160 -60 143
-175 337 -256 433 -114 135 -293 277 -426 341 -77 36 -186 77 -186 70 0 -4 -6
-2 -13 4 -7 6 -28 14 -47 17 -19 3 -46 8 -60 10 -60 12 -76 15 -139 21 -36 3
-70 6 -76 6 -72 -1 -246 -11 -265 -16 -14 -3 -41 -8 -60 -11 -19 -2 -46 -7
-60 -11 -47 -11 -110 -6 -136 10 -14 10 -34 31 -45 49 -19 30 -20 45 -16 222
3 127 8 190 16 193 6 2 11 11 11 20 0 16 59 64 84 68 6 1 27 4 46 8 19 3 89 8
155 12 66 4 121 7 122 8 2 1 80 -2 198 -8z m3800 -196 c50 -10 124 -28 165
-40 41 -12 80 -23 85 -24 12 -3 28 -10 110 -41 73 -28 180 -79 220 -105 17
-11 37 -23 45 -27 33 -15 159 -124 165 -143 8 -25 -2 -60 -18 -61 -31 -2 -122
-8 -212 -13 -55 -3 -111 -8 -125 -11 -14 -3 -45 -8 -70 -11 -24 -3 -47 -7 -51
-9 -3 -2 -21 -7 -39 -10 -55 -10 -161 -46 -221 -75 -119 -58 -171 -64 -289
-32 -19 6 -69 20 -110 31 -41 12 -107 30 -147 40 -85 23 -109 35 -123 61 -23
44 -11 68 106 218 167 211 198 239 303 267 51 14 81 11 206 -15z m-4085 -560
c52 -12 103 -23 113 -26 9 -2 25 -6 36 -8 63 -14 273 -97 335 -133 22 -13 58
-31 79 -40 20 -9 37 -20 37 -25 0 -4 5 -8 11 -8 18 0 189 -133 249 -193 100
-102 170 -186 170 -206 0 -6 4 -11 8 -11 22 0 88 -182 99 -275 19 -153 -2
-229 -82 -304 -24 -23 -46 -41 -49 -41 -2 0 -42 -26 -88 -57 -74 -52 -88 -58
-131 -57 -75 2 -89 22 -164 240 -36 104 -67 198 -71 209 -12 42 -77 133 -138
192 -50 48 -93 76 -201 131 -217 110 -247 115 -541 99 -80 -4 -84 -4 -113 24
-29 27 -31 33 -26 82 3 28 11 77 17 107 6 30 13 73 16 95 14 109 47 165 126
211 40 23 50 25 128 20 47 -3 128 -15 180 -26z m3355 -278 c202 -94 214 -128
97 -287 -29 -38 -56 -75 -62 -82 -5 -7 -10 -15 -10 -18 0 -4 -6 -12 -12 -19
-7 -8 -31 -39 -53 -70 -63 -88 -158 -116 -244 -72 -15 8 -31 12 -35 9 -3 -4
-6 -2 -6 4 0 6 -10 13 -23 17 -13 3 -50 18 -83 32 -32 15 -63 28 -69 30 -32 7
-142 65 -156 80 -8 11 -16 36 -18 56 -3 42 7 53 164 193 43 39 85 77 94 86 35
34 88 68 136 87 80 32 130 23 280 -46z m-3687 -392 c123 -38 318 -143 403
-217 86 -75 161 -161 188 -215 8 -16 18 -28 23 -28 4 0 8 -9 8 -20 0 -11 4
-20 10 -20 5 0 9 -3 8 -7 -1 -5 6 -25 15 -46 17 -40 39 -111 43 -137 1 -8 5
-28 9 -45 3 -16 9 -66 12 -110 8 -117 3 -122 -242 -235 -84 -39 -184 -75 -190
-68 -2 2 -7 28 -10 58 -3 30 -10 73 -15 95 -6 22 -13 49 -15 60 -4 19 -9 30
-44 104 -28 59 -114 139 -183 170 -72 32 -66 31 -216 34 -111 2 -114 3 -138
30 -28 33 -29 49 -9 106 8 23 15 43 15 46 0 3 2 10 5 17 5 16 39 131 40 138 0
3 17 57 38 120 38 122 56 148 117 174 37 15 68 14 128 -4z m2847 -255 c17 -4
37 -8 45 -10 8 -2 16 -4 18 -5 2 -3 8 -5 42 -16 92 -29 317 -166 393 -238 64
-62 94 -131 102 -232 15 -216 19 -259 25 -259 1 0 3 -16 6 -35 2 -20 16 -76
29 -125 14 -50 28 -97 30 -105 16 -66 145 -330 175 -360 14 -14 50 -70 50 -79
0 -5 3 -11 8 -13 4 -1 32 -32 62 -68 57 -68 154 -165 240 -238 56 -49 65 -85
30 -117 -23 -21 32 -19 -797 -27 l-353 -3 -25 25 c-38 39 -39 66 -4 150 35 85
46 113 47 120 0 3 6 19 13 35 6 17 22 77 34 135 47 224 16 458 -83 640 -75
136 -235 314 -357 395 -33 22 -61 43 -63 48 -2 4 -7 7 -12 7 -11 0 -119 66
-142 87 -24 21 -19 77 9 102 61 55 165 132 203 152 78 41 185 54 275 34z
m-825 -567 c81 -44 280 -179 280 -189 0 -5 6 -9 14 -9 22 0 218 -199 265 -269
101 -149 140 -297 116 -436 -9 -53 -11 -64 -15 -67 -1 -2 -3 -10 -5 -19 -11
-58 -101 -200 -177 -279 -117 -123 -151 -133 -463 -145 -155 -6 -184 0 -203
44 -11 24 -10 35 8 76 30 70 80 215 74 215 -2 0 0 8 5 18 23 42 33 241 19 337
-27 172 -140 333 -309 441 -83 53 -99 68 -99 99 0 26 77 96 115 104 6 1 14 9
18 17 4 8 13 14 19 14 5 0 27 13 47 28 34 27 101 57 146 65 30 5 83 -12 145
-45z m-2328 -34 c163 -60 268 -154 300 -269 23 -87 -1 -171 -64 -218 -18 -14
-82 -44 -143 -67 -60 -23 -118 -45 -127 -50 -9 -5 -42 -18 -74 -29 -31 -11
-67 -27 -80 -36 -28 -18 -31 -50 -6 -64 18 -10 377 -7 437 4 184 32 356 22
463 -28 51 -24 122 -101 122 -133 0 -13 3 -24 8 -24 11 0 6 -141 -6 -172 -22
-54 -104 -109 -147 -98 -5 1 -23 4 -40 6 -16 2 -44 9 -61 14 -17 6 -41 13 -53
15 -11 3 -30 7 -41 10 -11 3 -29 7 -40 10 -11 3 -28 7 -37 9 -10 2 -45 12 -78
21 -61 17 -99 27 -170 44 -22 5 -50 12 -62 15 -13 3 -31 8 -40 10 -10 2 -30 9
-44 14 -15 6 -29 8 -32 6 -3 -3 -14 -1 -24 4 -10 6 -31 13 -48 16 -48 9 -345
85 -354 90 -4 3 -22 8 -40 11 -41 7 -97 30 -104 42 -4 5 -8 23 -11 39 -5 24 9
54 74 163 44 73 80 137 80 142 0 5 4 9 8 9 5 0 19 19 31 43 12 23 46 80 76
127 29 47 63 103 75 125 12 22 35 59 51 83 16 24 29 45 29 48 0 12 43 60 63
71 30 17 59 16 109 -3z m1463 -314 c0 -1 8 -3 17 -5 9 -2 37 -17 61 -34 24
-16 47 -27 51 -24 3 4 6 2 6 -4 0 -6 19 -23 43 -38 59 -40 166 -150 210 -217
70 -107 94 -184 91 -293 -1 -44 -5 -89 -7 -100 -30 -122 -115 -249 -187 -281
-14 -6 -45 -10 -70 -8 -25 2 -79 6 -120 9 -41 4 -100 8 -130 10 -30 2 -68 6
-85 9 -16 2 -55 7 -85 11 -151 18 -184 55 -151 173 17 63 16 187 -3 257 -19
67 -62 149 -111 210 -28 35 -31 44 -23 72 6 25 20 39 56 59 122 66 177 97 182
103 3 3 21 14 40 25 19 10 49 26 65 36 44 25 85 37 119 34 17 -1 31 -3 31 -4z"/>
</g>
</svg>
